<svg xmlns="http://www.w3.org/2000/svg" xmlns:xlink="http://www.w3.org/1999/xlink" viewBox="0 0 1862.167 452.167">
  <defs>
    <style>
      .cls-1, .cls-11, .cls-13, .cls-15, .cls-17, .cls-3, .cls-5 {
        fill: none;
      }

      .cls-2 {
        clip-path: url(#clip-path);
      }

      .cls-11, .cls-13, .cls-15, .cls-17, .cls-3, .cls-5 {
        stroke: #000;
        stroke-linecap: round;
        stroke-linejoin: round;
      }

      .cls-3 {
        stroke-width: 31px;
      }

      .cls-4 {
        clip-path: url(#clip-path-2);
      }

      .cls-5 {
        stroke-width: 30px;
      }

      .cls-6 {
        clip-path: url(#clip-path-3);
      }

      .cls-7 {
        clip-path: url(#clip-path-4);
      }

      .cls-8 {
        clip-path: url(#clip-path-5);
      }

      .cls-9 {
        clip-path: url(#clip-path-6);
      }

      .cls-10 {
        clip-path: url(#clip-path-7);
      }

      .cls-11 {
        stroke-width: 32px;
      }

      .cls-12 {
        clip-path: url(#clip-path-8);
      }

      .cls-13 {
        stroke-width: 33px;
      }

      .cls-14 {
        clip-path: url(#clip-path-9);
      }

      .cls-15 {
        stroke-width: 34px;
      }

      .cls-16 {
        clip-path: url(#clip-path-10);
      }

      .cls-17 {
        stroke-width: 36px;
      }

      .cls-18 {
        clip-path: url(#clip-path-11);
      }

      polyline {
        stroke-dasharray: 2000;
        stroke-dashoffset: 2000;
        animation: dash 0.8s linear forwards;
      }

      #r-in {
        animation-delay: 0.8s;
      }

      #i-in {
        animation-delay: 1.25s;
      }

      #ii-in {
        animation-delay: 1.5s;
      }

      #s-in {
        animation-delay: 1.85s;
      }

      #e-in {
        animation-delay: 2.2s;
      }

      #rr-in {
        animation-delay: 2.5s;
      }

      #d-in {
        animation-delay: 2.8s;
      }

      #c-in {
        animation-delay: 3.12s;
      }

      #ee-in {
        animation-delay: 3.4s;
      }

      #v-in {
        animation-delay: 3.65s;
      }

      @keyframes dash {
        to {
          stroke-dashoffset: 0;
        }
      }
    </style>
    <clipPath id="clip-path">
      <path id="v-out" class="cls-1" d="M1723.915,163.63a222.31,222.31,0,0,0-13.869,26.331,212.911,212.911,0,0,0-11.055,29.547,198.446,198.446,0,0,1,24.522-34.572q19.3-22.1,34.17-22.11,12.06,0,12.06,17.286,0,24.93-15.678,56.682a128.894,128.894,0,0,1-27.336,37.788q-20.106,18.891-41,18.894-16.083,0-16.08-6.03a2.132,2.132,0,0,1,2.412-2.412,28.657,28.657,0,0,1,5.829,1.407,27.787,27.787,0,0,0,7.839,1.407q18.09,0,35.778-20.5a133.5,133.5,0,0,0,21.708-36.582,101.371,101.371,0,0,0,7.638-39.8q0-13.266-6.03-13.266-13.266,0-35.376,36.582-20.907,34.173-20.9,51.054a8.242,8.242,0,0,0,3.015,6.834q3.015,2.412,3.015,4.02c0,1.068-.672,1.608-2.01,1.608q-14.877,0-14.874-21.708,0-15.273,7.437-39.6t22.713-55.677q12.861-25.326,44.622-75.978,49.041-78.39,80-78.39,18.09,0,18.09,16.482,0,28.944-50.652,80.8Q1767.331,136.7,1723.915,163.63ZM1842.907,30.166q0-8.442-6.834-8.844-10.46,0-32.562,17.688-39,30.96-67.134,94.872-4.429,10.854-6.432,16.884,28.944-16.884,66.731-54.27Q1842.1,52.684,1842.907,30.166Z"/>
    </clipPath>
    <clipPath id="clip-path-2">
      <path id="ee-out" class="cls-1" d="M1687.74,231.166a6.165,6.165,0,0,1-.8,2.412q-10.053,15.678-30.149,28.944-21.313,14.076-38.994,14.07-25.328,0-25.327-31.758,0-20.9,18.09-45.828,19.3-26.532,39.8-26.532a8.956,8.956,0,0,1,7.035,3.618,11.776,11.776,0,0,1,3.015,7.638q0,12.465-18.894,30.15-16.882,15.678-30.954,20.9a64.689,64.689,0,0,0-2.814,16.884q0,16.488,14.874,16.482,14.067,0,31.759-11.658a120.489,120.489,0,0,0,26.13-22.914q2.806-4.014,5.627-4.019A1.424,1.424,0,0,1,1687.74,231.166Zm-39.4-42.612q0-4.824-4.824-4.824-6.028,0-17.687,18.493-10.053,15.676-12.462,24.521,10.449-4.417,21.708-15.678Q1648.345,198.205,1648.344,188.554Z"/>
    </clipPath>
    <clipPath id="clip-path-3">
      <path id="c-out" class="cls-1" d="M1512.469,320.41q2.007-4.428,6.031-4.422,0-.81,7.235,4.02,6.833,5.22,12.463,4.422,15.273-.81,23.718-20.1a77.214,77.214,0,0,0,6.431-35.376q-11.664,6.841-19.3,2.412t-7.637-16.08a54.746,54.746,0,0,1,1.607-12.462,42.189,42.189,0,0,1,4.422-11.658q-6.84,9.648-11.055,15.678t-6.23,8.442q-13.267,15.678-23.719,15.678-13.266,0-13.265-22.512,0-12.861,8.442-30.954,8.837-20.9,20.1-20.9,6.03,0,6.031,3.217L1517.294,218.3q-10.055,17.288-10.05,27.336,0,12.868,7.638,12.863,11.653,0,39.395-47.033,4.014-7.236,7.438-12.463a78.4,78.4,0,0,0,7.035-14.874q3.212-3.213,6.03-3.216a9.224,9.224,0,0,1,6.633,3.015,9.647,9.647,0,0,1,3.014,7.035L1569.956,217.9q-14.078,27.343-14.071,41.406a14.258,14.258,0,0,0,1.206,6.633q1.206,2.214,4.02,1.608t7.639-4.824a162.667,162.667,0,0,0,12.462-12.663q2.005-2.412,2.813.8t-4.823,9.246q-1.611,1.612-3.016,3.015a17.492,17.492,0,0,1-2.612,2.211q2.41,5.229.8,19.3a106.727,106.727,0,0,1-2.815,17.487,94.706,94.706,0,0,1-4.823,14.271q-8.046,18.891-26.131,20.9-6.84,0-18.09-4.824Q1509.649,325.63,1512.469,320.41Z"/>
    </clipPath>
    <clipPath id="clip-path-4">
      <path id="d-out" class="cls-1" d="M1482.322,186.142q0,1.611-3.618,2.814t-4.823,3.618q-2.018,8.849-4.422,20.5-4.826,20.5-14.071,61.506H1457q21.3-.8,21.306,9.246c0,1.608-.54,2.412-1.608,2.412a16.117,16.117,0,0,1-3.417-2.01q-3.015-2.016-11.457-2.01a80.066,80.066,0,0,0-8.04.4q-14.877,60.3-38.19,93.666-43.416,63.513-92.459,63.516-19.3,0-32.362-11.256T1277.7,398.4q0-43.02,61.1-82.41,51.86-33.372,100.5-41,2.808-15.273,9.246-46.23-26.937,47.844-47.838,47.838-12.465,0-12.461-13.668,0-20.5,20.1-50.25t38.994-36.18a36.994,36.994,0,0,1,13.266-2.814q5.625,0,13.668,3.819T1482.322,186.142Zm-43.416,96.078q-26.532,4.419-63.113,22.914t-56.281,36.984q-30.15,28.944-30.15,57.486,0,15.678,9.85,25.125t25.526,9.447q24.93,0,49.044-20.9,19.3-16.488,34.17-42.209Q1429.255,334.882,1438.906,282.22Zm24.522-94.872a15.171,15.171,0,0,0-3.618-.4q-16.082,0-33.366,20.5-24.525,29.754-24.521,48.642,0,8.442,5.627,8.442,8.838,0,22.915-18.492Q1450.156,221.119,1463.428,187.348Z"/>
    </clipPath>
    <clipPath id="clip-path-5">
      <path id="rr-out" class="cls-1" d="M1405.944,226.744q0,2.817-2.412,6.834-10.458,17.289-34.572,34.572-25.731,19.3-43.416,19.3-3.618,0-10.854-.4h-10.452q-1.611,0-12.06-2.814-12.465,32.157-33.768,67.536-30.15,49.041-49.044,49.044-10.043,0-10.05-14.874,0-19.7,36.18-73.164,25.722-35.379,51.858-71.154v-2.412q0-14.47-.4-25.326-15.282,24.93-19.3,24.925-2.41,0-2.412-2.815a5.364,5.364,0,0,1,1.206-3.217q17.685-24.919,17.688-44.621a9.948,9.948,0,0,0-2.211-6.633q-2.214-2.61-2.211-4.221t12.462-1.608q13.662,0,13.668,27.335,0,4.024-.6,11.86t-.6,11.457a270.746,270.746,0,0,1,24.924-37.788q20.9-25.722,34.974-25.728,12.861,0,12.864,18.894,0,23.724-16.683,55.074t-36.381,43.818q34.974-.81,77.586-54.27,1.6-2.007,2.412-2.01C1405.4,224.332,1405.944,225.137,1405.944,226.744Zm-122.208,36.582a1.192,1.192,0,0,0-.8-.4c-1.074,0-2.55,1.345-4.422,4.02q-9.648,14.472-28.944,42.612-8.442,12.06-21.306,36.582-14.868,28.539-14.874,36.984,0,3.618,2.413,3.618,17.693,0,48.641-57.888,8.037-15.282,17.286-52.662a20.294,20.294,0,0,1-.4-4.02A16.873,16.873,0,0,1,1283.736,263.326Zm75.978-73.164q0-12.456-6.834-12.462a10.77,10.77,0,0,0-4.02.8q-14.472,6.435-30.552,37.387a263.178,263.178,0,0,0-19.3,47.033q4.014,6.03,14.07,15.276,17.685-7.632,32.562-38.19Q1359.711,211.066,1359.714,190.162Z"/>
    </clipPath>
    <clipPath id="clip-path-6">
      <path id="e-out" class="cls-1" d="M1272.484,231.166a6.148,6.148,0,0,1-.8,2.412q-10.053,15.678-30.149,28.944-21.314,14.076-38.994,14.07-25.328,0-25.326-31.758,0-20.9,18.089-45.828,19.3-26.532,39.8-26.532a8.956,8.956,0,0,1,7.035,3.618,11.776,11.776,0,0,1,3.015,7.638q0,12.465-18.893,30.15-16.884,15.678-30.955,20.9a64.731,64.731,0,0,0-2.814,16.884q0,16.488,14.874,16.482,14.067,0,31.759-11.658a120.489,120.489,0,0,0,26.13-22.914q2.806-4.014,5.628-4.019A1.423,1.423,0,0,1,1272.484,231.166Zm-39.395-42.612q0-4.824-4.825-4.824-6.029,0-17.687,18.493-10.053,15.676-12.462,24.521,10.449-4.417,21.708-15.678Q1233.089,198.205,1233.089,188.554Z"/>
    </clipPath>
    <clipPath id="clip-path-7">
      <path id="s-out" class="cls-1" d="M1219.022,88.858q0,27.342-30.15,50.25-28.143,22.113-56.682,22.11-29.349,0-29.347-22.512,0-16.074,7.237-16.08c1.872,0,2.814,1.206,2.814,3.618a24.738,24.738,0,0,1-.4,3.618,23.787,23.787,0,0,0-.4,3.618q0,15.678,20.5,15.678,21.3,0,48.241-20.5t26.933-40.6q0-19.692-33.365-19.7a107.216,107.216,0,0,0-13.267.8q-34.576,3.618-78.792,29.145T1008.776,158q-32.562,38.592-32.562,73.969,0,22.111,14.874,33.767,13.265,10.458,36.18,10.452,73.161,0,141.906-57.085a5.343,5.343,0,0,1,3.215-1.2q4.826,0,4.825,5.226a5,5,0,0,1-1.608,3.618q-29.349,26.937-69.546,45.828-44.226,20.9-80,20.9-29.349,0-47.436-12.06-21.312-14.067-21.306-41.809,0-32.955,26.934-71.957,31.752-46.224,82.41-76.782Q1120.933,57.505,1173.6,57.5,1219.019,57.5,1219.022,88.858Z"/>
    </clipPath>
    <clipPath id="clip-path-8">
      <path id="ii-out" class="cls-1" d="M927.583,226.744q0,2.817-2.412,6.834a147.529,147.529,0,0,1-26.129,32.16q-19.3,17.685-36.181,17.688-22.518,0-22.512-28.14,0-6.426,6.03-25.326-14.076,20.5-18.09,25.326-13.266,15.678-23.718,15.678-13.266,0-13.266-22.512,0-12.861,8.442-30.954,9.243-20.9,20.1-20.9,6.03,0,6.03,3.217,0,.4-10.251,18.291t-10.251,27.537q0,12.868,7.638,12.863,12.861,0,46.23-58.691,2.807-5.626,8.442-15.679,2.808-3.213,6.03-3.216a9.217,9.217,0,0,1,6.633,3.015,9.647,9.647,0,0,1,3.014,7.035q0-.4-14.27,26.934t-14.271,42.21q0,14.076,13.266,14.07,11.25,0,25.728-12.864,9.648-8.442,21.707-24.121,10.046-12.859,10.856-12.863Q927.581,224.332,927.583,226.744Zm-12.461-96.48a4.354,4.354,0,0,0-1.61,2.01q-27.342,30.15-53.465,26.13-22.113-3.618-22.914-24.924a38.936,38.936,0,0,1,1.206-6.834q1.206-4.014,3.216-3.618t3.216,6.834Q846.778,137.5,850,141.52q4.824,6.84,15.276,8.442,20.5,3.618,43.415-18.894,2.81-3.213,4.824-2.814A1.908,1.908,0,0,1,915.122,130.264Z"/>
    </clipPath>
    <clipPath id="clip-path-9">
      <path id="i-out" class="cls-1" d="M810.607,226.744q0,2.817-2.412,6.834a147.475,147.475,0,0,1-26.13,32.16q-19.3,17.685-36.18,17.688-22.518,0-22.512-28.14,0-6.426,6.03-25.326-14.076,20.5-18.09,25.326-13.266,15.678-23.718,15.678-13.266,0-13.266-22.512,0-12.861,8.442-30.954,9.243-20.9,20.1-20.9,6.03,0,6.03,3.217,0,.4-10.251,18.291T688.4,245.639q0,12.868,7.638,12.863,12.861,0,46.23-58.691,2.806-5.626,8.442-15.679,2.808-3.213,6.03-3.216a9.22,9.22,0,0,1,6.633,3.015,9.648,9.648,0,0,1,3.015,7.035q0-.4-14.271,26.934t-14.271,42.21q0,14.076,13.266,14.07,11.25,0,25.728-12.864,9.648-8.442,21.708-24.121,10.042-12.859,10.854-12.863Q810.607,224.332,810.607,226.744Z"/>
    </clipPath>
    <clipPath id="clip-path-10">
      <path id="r-out" class="cls-1" d="M692.421,226.744q0,2.817-2.413,6.834-10.458,17.289-34.571,34.572-25.732,19.3-43.416,19.3-3.618,0-10.854-.4H590.715q-1.613,0-12.061-2.814-12.465,32.157-33.768,67.536-30.148,49.041-49.044,49.044-10.043,0-10.049-14.874,0-19.7,36.18-73.164,25.721-35.379,51.858-71.154v-2.412q0-14.47-.4-25.326-15.282,24.93-19.3,24.925-2.41,0-2.412-2.815a5.371,5.371,0,0,1,1.206-3.217q17.685-24.919,17.688-44.621a9.948,9.948,0,0,0-2.211-6.633q-2.214-2.61-2.21-4.221t12.461-1.608q13.662,0,13.668,27.335,0,4.024-.6,11.86t-.6,11.457a270.661,270.661,0,0,1,24.925-37.788q20.9-25.722,34.974-25.728,12.861,0,12.864,18.894,0,23.724-16.684,55.074t-36.38,43.818q34.974-.81,77.586-54.27,1.6-2.007,2.412-2.01C691.881,224.332,692.421,225.137,692.421,226.744ZM570.213,263.326a1.191,1.191,0,0,0-.8-.4c-1.073,0-2.549,1.345-4.422,4.02q-9.648,14.472-28.943,42.612-8.442,12.06-21.307,36.582-14.866,28.539-14.874,36.984,0,3.618,2.413,3.618,17.694,0,48.642-57.888,8.037-15.282,17.286-52.662a20.221,20.221,0,0,1-.4-4.02A16.874,16.874,0,0,1,570.213,263.326Zm75.978-73.164q0-12.456-6.834-12.462a10.762,10.762,0,0,0-4.02.8q-14.472,6.435-30.552,37.387a263.256,263.256,0,0,0-19.3,47.033q4.014,6.03,14.071,15.276,17.683-7.632,32.562-38.19Q646.188,211.066,646.191,190.162Z"/>
    </clipPath>
    <clipPath id="clip-path-11">
      <path id="j-out" class="cls-1" d="M310.123,189.358q-21.708-6.831-55.878-10.452a270.017,270.017,0,0,1-30.753,45.627,312.756,312.756,0,0,1-41.2,40.8q-52.263,43.812-100.5,43.818-27.738,0-47.436-13.266Q11.833,280.606,11.839,254.08q0-49.446,81.606-72.36,55.476-15.273,122.208-15.276,7.236,0,13.467.2t11.859.6q20.9-51.453,20.9-76.782,0-15.678-10.05-15.678-5.229,0-13.266,4.422t-8.844,4.422q-2.412,0-2.412-3.618,0-4.824,13.266-10.452,12.06-4.824,19.3-4.824,18.486,0,18.492,26.13,0,28.143-19.3,77.988a288.714,288.714,0,0,1,34.974,6.834q16.884,4.428,26.532,7.638a.354.354,0,0,0,.4.4,24.956,24.956,0,0,1,2.613-3.618,24.753,24.753,0,0,0,2.613-3.618q-12.87-10.044-12.864-28.14,0-28.539,26.532-53.868,5.22-4.824,9.246-8.241a79.069,79.069,0,0,1,8.04-6.03q4.014-2.61,8.643-5.427t11.457-6.432q42.21-15.273,83.616-15.276,38.988,0,65.526,14.472,33.363,18.9,33.366,54.27,0,28.548-22.512,60.7-28.143,41.409-82.41,68.742Q400.969,278.608,351.127,278.6q-52.668,0-52.662-42.209,0-12.862,6.03-28.141,2.412-4.014,4.824-8.24a93.863,93.863,0,0,1,5.628-8.644Q310.924,189.766,310.123,189.358ZM235.753,177.7q-4.429-.4-9.849-.6t-11.055-.2q-60.7,0-112.56,14.472-76.383,20.909-76.38,65.526,0,21.313,18.492,32.562,15.273,10.043,37.386,10.05,43.416,0,90.852-41.406Q213.238,222.325,235.753,177.7Zm85.626,33.769q-6.84,13.67-6.834,24.924,0,16.082,11.457,24.923t28.341,8.844q48.24,0,96.48-28.944a236.087,236.087,0,0,0,73.968-68.742Q546.5,141.118,546.5,115.792q0-28.539-25.728-42.21-20.106-11.25-51.456-11.256-40.2,0-86.028,18.09a84.55,84.55,0,0,0-21.1,10.653,129.513,129.513,0,0,0-20.3,16.884,97.252,97.252,0,0,0-15.276,20.1q-6.03,10.656-6.03,20.3,0,15.678,10.05,22.914,6.831-8.037,14.271-15.879t15.879-15.879q37.386-34.164,70.752-48.24,8.442-3.213,15.678-5.226a66.791,66.791,0,0,1,13.266-2.412h.8q4.824-.4,4.824,3.618t-5.628,5.226a94.029,94.029,0,0,0-27.738,9.246,162.664,162.664,0,0,0-15.879,9.648Q408.61,117,399.367,124.234q-10.854,8.046-21.708,17.889t-22.11,21.507a152.445,152.445,0,0,0-11.256,12.462h4.824q27.333,0,56.682-28.14l11.256-11.658c1.338,0,2.01.942,2.01,2.814a88.847,88.847,0,0,1-31.356,30.954q-20.907,12.87-41,12.864-2.016,0-4.02.2a13.318,13.318,0,0,1-4.02-.2c-1.074,1.344-2.01,2.613-2.814,3.819s-1.608,2.481-2.412,3.819A67.9,67.9,0,0,1,346.3,201.016q4.824,5.229,4.824,10.453a13.236,13.236,0,0,1-2.211,6.834q-2.214,3.617-5.025,3.617-4.824,0-4.824-4.824a4.965,4.965,0,0,1,1.206-2.814,5.328,5.328,0,0,0,1.206-3.216q0-2.005-4.02-5.427a76.048,76.048,0,0,0-9.246-6.633A85.064,85.064,0,0,0,321.379,211.469Z"/>
    </clipPath>
  </defs>
  <title>ono</title>
  <g id="Шар_2" data-name="Шар 2">
    <g id="Шар_1-2" data-name="Шар 1">
      <g id="v">
        <g class="cls-2">
          <polyline id="v-in" class="cls-3" points="1699.333 154.833 1720.667 156.833 1745 145.5 1770 126.833 1806 91.833 1823.333 72.167 1839 50.833 1846.667 33.5 1842.907 15.5 1825 15.5 1788.333 43.833 1757.333 86.044 1736.333 120.833 1722.667 144.833 1706 183.73 1691.667 213.5 1682.667 259.105 1685.167 269 1690.667 281 1667.667 281 1687.74 290 1706.167 284 1724.667 271 1750.167 229 1762.167 189 1757.167 170 1739.167 175.5 1725.667 187 1712.167 203.75 1698.417 226.744 1686.667 252.75 1674.417 272.25"/>
        </g>
      </g>
      <g id="ee">
        <g class="cls-4">
          <polyline id="ee-in" class="cls-5" points="1613.371 238.167 1613.371 229.833 1630.858 219.5 1648.344 201.5 1656 183.73 1648.344 176.5 1625 189.833 1605 220.833 1597.667 251.833 1607.333 269.167 1620.333 272.833 1642.333 266.833 1665.667 251.5 1692 225.739"/>
        </g>
      </g>
      <g id="c">
        <g class="cls-6">
          <polyline id="c-in" class="cls-3" points="1527.333 189.833 1509 217.833 1500.333 245.5 1503 264.532 1525.667 256.5 1555.333 218.5 1575.667 186.946 1551 247.167 1548.667 261.5 1553.333 268.5 1579.333 246.833 1571 266.167 1570.667 288.833 1563.667 313.5 1551 327.5 1523.333 327.5 1517 321.5 1506 311.167"/>
        </g>
      </g>
      <g id="d">
        <g class="cls-7">
          <polyline id="d-in" class="cls-5" points="1495.167 186.946 1461.167 180.916 1437.167 186.946 1417.667 209 1395.667 255 1395.667 268.5 1405.944 270.5 1424.167 259.105 1458.667 213 1467.167 186.946 1452.667 254.5 1438.906 313.5 1425.167 349 1408.167 381 1395.667 398 1376 415.5 1356.333 427.833 1340 434.176 1323.333 437.167 1304.667 434.176 1287.667 417.167 1283.736 386.74 1299.012 354.5 1343.667 317.5 1393 291.5 1431.333 279.833 1466.667 278.2 1484.667 288.833"/>
        </g>
      </g>
      <g id="rr">
        <g class="cls-8">
          <polyline id="rr-in" class="cls-3" points="1263.167 250 1275.167 224.533 1293.667 186.946 1293.667 180.916 1293.667 244 1281.667 298.5 1272.484 319 1256.167 350 1237.167 376.5 1215.602 393.5 1204.667 389.5 1213.386 358.198 1248.561 303.5 1275.667 264.532 1305.167 231.5 1317.167 211 1329.363 193.75 1341.667 179 1365.667 168.25 1368.167 180.916 1354.667 236 1332.667 269.5 1313.667 281.818 1293.667 268.5 1292.167 278.2 1329.363 284.5 1359.714 271.5 1382.167 254 1412.667 217.5"/>
        </g>
      </g>
      <g id="e">
        <g class="cls-9">
          <polyline id="e-in" class="cls-3" points="1198.115 239.5 1198.115 230.5 1213.386 222 1227.667 207.5 1239.167 189 1235.167 177.7 1213.386 186.946 1188.167 226.744 1184.167 256.5 1194.167 270.5 1213.386 270.5 1248.561 254.5 1275.667 226.744"/>
        </g>
      </g>
      <g id="s">
        <g class="cls-10">
          <polyline id="s-in" class="cls-11" points="1108.167 112 1108.167 135 1112.167 150 1130.167 154.5 1166.167 146.5 1198.115 122.992 1210.667 105.5 1213.386 82.5 1201.667 67 1155.667 63 1097.667 81 1051.667 108.75 999.167 158.877 978.167 190.5 966.167 227.95 971.667 262.924 1001.667 282.22 1055.167 283.426 1105.667 266.5 1171.667 224.533 1182.667 211"/>
        </g>
      </g>
      <g id="ii">
        <g class="cls-12">
          <polyline id="ii-in" class="cls-13" points="827.333 184.167 810.607 212.833 799.333 253.5 804 262.924 813.333 262.924 827.333 253.5 840.333 234.833 882.333 177.7 857.333 225.5 847.667 256.167 852 273.5 862 278.2 878 275.833 894.333 265.167 911 248.167 925 229.833 931 217.5 921 116.5 830.667 116.5 841 130.167 844 143.833 857.667 152.5 879.667 152.833 901.333 140.935 917.333 125.167"/>
        </g>
      </g>
      <g id="i">
        <g class="cls-14">
          <polyline id="i-in" class="cls-15" points="710.333 188.833 697.667 206.167 689 219.5 681.667 252.833 685.333 263.833 705.667 257.167 730 226.333 757.667 188.833 742.468 221.5 731.333 250.833 732.333 267.167 742.468 278.2 766.333 273.833 785.667 257.167 807.667 229.833 818.333 218.833"/>
        </g>
      </g>
      <g id="r">
        <g class="cls-16">
          <polyline id="r-in" class="cls-17" points="549.167 241.5 564.167 222 578.667 181.117 574.167 162.826 581.167 217 577.667 252 570.213 291 555.167 327.5 540.667 353 526.667 373 508.667 391.5 494.167 395 494.167 369.5 528.667 311.5 565.667 259.5 595.667 227.95 611.917 198 624 182.833 646.191 168.833 656 175.167 652.333 210.5 634.333 249.5 615.84 270.16 602.667 278.913 582.667 270.16 581 278.2 600.667 283.426 628 281.818 664.667 257.833 688.333 230.5 695 218.167"/>
        </g>
      </g>
      <g id="j">
        <g class="cls-18">
          <polyline id="j-in" class="cls-17" points="220 86.833 238.167 75 257.167 69 270.167 84.5 248.667 172.5 213.167 224 170.667 270.16 116.667 299.506 70 304.167 25.909 281.818 18 248.167 32.667 218.833 65.333 196.5 130.831 177.7 218.667 170.833 273.333 176.896 321.333 186.583 341.333 201.5 345.333 212.833 342 227.95 485.793 86.833 448.667 89.5 388.667 124.167 346 162.826 314.545 212.167 306 232.171 311.333 259.5 329.333 270.16 370 274.167 437.333 254.833 506.667 207.5 552.667 133.5 546.499 92.833 535.038 78.833 516.667 69 488.667 58.833 426 62.326 385.333 73.5 336.667 104.833 318.667 134.167 319.333 162.826 330.667 176.896 346.667 179.167 365.667 176.896 392.333 162.826 425.667 131.833"/>
        </g>
      </g>
    </g>
  </g>
</svg>
